<svg width="123" height="28" viewBox="0 0 123 28" fill="none" xmlns="http://www.w3.org/2000/svg">
<g clip-path="url(#clip0)">
<path d="M13.1612 22.4798C8.18481 22.4798 4.19062 18.4228 4.19062 13.3682C4.19062 8.31354 8.18481 4.25653 13.1612 4.25653C18.1375 4.25653 22.1317 8.31354 22.1317 13.3682C22.1317 15.3634 21.477 17.2257 20.4293 18.7553L23.1794 22.1473C25.1437 19.8195 26.3878 16.7601 26.3878 13.4347C26.3224 5.98575 20.4293 0 13.1612 0C5.89307 0 0 5.98575 0 13.3682C0 20.7506 5.89307 26.7363 13.1612 26.7363C15.4529 26.7363 17.5482 26.1378 19.4471 25.1401L16.697 21.7482C15.5839 22.2138 14.4053 22.4798 13.1612 22.4798Z" fill="url(#paint0_linear)"/>
<path d="M23.1795 22.0807C22.1319 23.2779 20.8878 24.342 19.4473 25.1401L21.0187 27.1354C21.87 28.133 23.376 28.3325 24.3582 27.4679C25.3403 26.6033 25.5368 25.0736 24.6855 24.076L23.1795 22.0807Z" fill="#E13E2D"/>
<path d="M44.1326 23.0119H40.8586V4.78857H44.1326V23.0119Z" fill="#1D1D1B"/>
<path d="M72.6811 23.0119H69.4071V12.171L63.645 22.4798C63.5141 22.7459 63.3176 22.9454 63.0557 23.0784C62.7938 23.2114 62.5319 23.2779 62.27 23.2779C62.0081 23.2779 61.7461 23.2114 61.4842 23.0784C61.2223 22.9454 61.0259 22.7459 60.8949 22.4798L55.1328 12.171V23.0119H51.8589V6.18529C51.8589 5.78624 51.9898 5.4537 52.1863 5.18767C52.3827 4.92163 52.7101 4.72211 53.0375 4.58909C53.2339 4.52258 53.3649 4.52258 53.5613 4.52258C53.7578 4.52258 53.8887 4.58909 54.0852 4.6556C54.2161 4.72211 54.4126 4.78862 54.5435 4.92163C54.6745 5.05465 54.8054 5.18767 54.8709 5.32068L62.27 18.3563L69.669 5.32068C69.8655 4.98814 70.1274 4.78862 70.4548 4.6556C70.7822 4.52258 71.1751 4.52258 71.5024 4.58909C71.8298 4.72211 72.1572 4.92163 72.3537 5.18767C72.5501 5.4537 72.6811 5.85275 72.6811 6.18529V23.0119Z" fill="#1D1D1B"/>
<path d="M97.1047 15.6295C97.1047 16.4941 96.9738 17.2922 96.7773 18.0238C96.5809 18.7554 96.2535 19.4205 95.8606 20.0856C95.4678 20.6841 94.9439 21.2162 94.4201 21.6817C93.8308 22.1473 93.2415 22.4799 92.5212 22.7459L95.6642 25.1402H90.9497L88.527 23.278H85.3186C84.2709 23.278 83.2233 23.0784 82.3066 22.7459C81.3899 22.3468 80.6041 21.8148 79.9494 21.1497C79.2946 20.4846 78.7707 19.6865 78.3779 18.7554C77.985 17.8243 77.7886 16.8266 77.7886 15.696V12.2376C77.7886 11.1069 77.985 10.1093 78.3779 9.17819C78.7707 8.24707 79.2946 7.44897 79.9494 6.78389C80.6041 6.1188 81.3899 5.58674 82.3066 5.18769C83.2233 4.78864 84.2055 4.58911 85.3186 4.58911H89.7057C90.7533 4.58911 91.801 4.78864 92.6522 5.18769C93.5689 5.58674 94.3546 6.1188 95.0094 6.78389C95.6642 7.44897 96.188 8.24707 96.5809 9.17819C96.9738 10.1093 97.1702 11.1069 97.1702 12.2376V15.6295H97.1047ZM93.8963 12.1711C93.8963 11.506 93.7653 10.9074 93.5689 10.3753C93.3724 9.84327 93.1105 9.37771 92.7177 9.04517C92.3248 8.64612 91.9319 8.38009 91.4081 8.18056C90.8843 7.98104 90.295 7.84802 89.7057 7.84802H85.3186C84.6638 7.84802 84.14 7.98104 83.6162 8.18056C83.0923 8.38009 82.634 8.64612 82.3066 9.04517C81.9137 9.44422 81.6518 9.84327 81.4554 10.3753C81.2589 10.9074 81.128 11.506 81.128 12.1711V15.6295C81.128 16.2946 81.2589 16.8932 81.4554 17.4252C81.6518 17.9573 81.9792 18.4228 82.3066 18.7554C82.6995 19.1544 83.1578 19.4205 83.6162 19.62C84.14 19.8195 84.7293 19.9525 85.3186 19.9525H89.7057C90.3604 19.9525 90.8843 19.8195 91.4081 19.62C91.9319 19.4205 92.3903 19.1544 92.7177 18.7554C93.1105 18.3563 93.3724 17.9573 93.5689 17.4252C93.7653 16.8932 93.8963 16.2946 93.8963 15.6295V12.1711Z" fill="#1D1D1B"/>
<path d="M121.135 23.0119H117.861V18.5558H106.468V23.0119H103.194V13.9002C103.194 12.5701 103.391 11.3729 103.849 10.2423C104.307 9.11163 104.897 8.18052 105.748 7.38242C106.533 6.58432 107.516 5.98574 108.563 5.52019C109.676 5.05463 110.855 4.8551 112.165 4.8551H119.498C119.695 4.8551 119.957 4.92161 120.153 4.98812C120.349 5.05463 120.546 5.18764 120.677 5.32066C120.808 5.45368 120.939 5.6532 121.004 5.85273C121.07 6.05225 121.135 6.25178 121.135 6.51781V23.0119ZM106.468 15.2304H117.861V8.11401H112.165C112.034 8.11401 111.837 8.11401 111.51 8.18052C111.182 8.18052 110.79 8.31353 110.397 8.38004C110.004 8.51306 109.546 8.71258 109.087 8.91211C108.629 9.17814 108.17 9.51068 107.778 9.90973C107.385 10.3088 107.057 10.9074 106.795 11.5059C106.533 12.171 106.403 12.9691 106.403 13.8337V15.2304H106.468Z" fill="#1D1D1B"/>
</g>
<defs>
<linearGradient id="paint0_linear" x1="-1.24835" y1="2.03868" x2="34.0554" y2="28.9474" gradientUnits="userSpaceOnUse">
<stop offset="0.00022931" stop-color="#40519D"/>
<stop offset="1" stop-color="#44428F"/>
</linearGradient>
<clipPath id="clip0">
<rect width="122.08" height="28" fill="white"/>
</clipPath>
</defs>
</svg>
