<svg width="14" height="15" viewBox="0 0 14 15" fill="none" xmlns="http://www.w3.org/2000/svg">
<path fill-rule="evenodd" clip-rule="evenodd" d="M0.929878 4.63037C0.41644 4.63037 0.00018851 5.03537 0 5.53507V7.07394V7.79764V9.33653C0.00018851 9.83619 0.41644 10.2412 0.929878 10.2412C1.44332 10.2412 1.85957 9.83619 1.85976 9.33653V7.79764V7.07394V5.53507C1.85957 5.03537 1.44332 4.63037 0.929878 4.63037ZM13.6956 5.53507C13.6955 5.03537 13.2792 4.63037 12.7658 4.63037C12.2523 4.63037 11.8361 5.03537 11.8359 5.53507H11.8359V7.07394V7.79764V9.33653H11.8359C11.8361 9.83619 12.2523 10.2412 12.7658 10.2412C13.2792 10.2412 13.6955 9.83619 13.6956 9.33653V7.79764V7.07394V5.53507ZM2.56375 5.14485H2.60996H10.964H10.9791V11.1109C10.9791 11.6087 10.5607 12.0159 10.0493 12.0159H9.26562V12.5564V14.0953C9.26541 14.595 8.84916 15 8.33574 15C7.8223 15 7.40607 14.595 7.40584 14.0953V12.5564V12.0159H6.13704V12.5564V14.0953C6.13685 14.595 5.7206 15 5.20716 15C4.69373 15 4.27747 14.595 4.27731 14.0953V12.5564V12.0159H3.49363C2.9822 12.0159 2.56375 11.6087 2.56375 11.1109V5.14485ZM10.9637 4.65412V4.21786C10.9515 4.09408 10.9323 3.97209 10.9063 3.85214C10.676 2.79083 9.91522 1.89183 8.87172 1.36977L9.51365 0.217195C9.55343 0.145783 9.52618 0.0565135 9.45283 0.0178211C9.37944 -0.0209325 9.28776 0.00563035 9.248 0.0770217L8.59791 1.2443C8.04548 1.0132 7.42599 0.883508 6.77144 0.883508C6.11197 0.883508 5.48794 1.01504 4.93236 1.24941L4.27942 0.0770217C4.23965 0.00563035 4.14795 -0.0209325 4.07457 0.0178211C4.0012 0.0565135 3.97397 0.145783 4.01375 0.217195L4.65906 1.37591C3.66438 1.87738 2.92841 2.72197 2.66741 3.72277C2.59969 3.98245 2.56375 4.25258 2.56375 4.53003C2.56375 4.57158 2.56486 4.6129 2.56645 4.65412H10.9637ZM4.84971 2.43679C5.06796 2.43679 5.24491 2.60899 5.24491 2.82143C5.24491 3.03385 5.06796 3.20605 4.84971 3.20605C4.63145 3.20605 4.45451 3.03385 4.45451 2.82143C4.45451 2.60899 4.63145 2.43679 4.84971 2.43679ZM8.6777 2.43679C8.89595 2.43679 9.07288 2.60899 9.07288 2.82143C9.07288 3.03385 8.89595 3.20605 8.6777 3.20605C8.45945 3.20605 8.28252 3.03385 8.28252 2.82143C8.28252 2.60899 8.45945 2.43679 8.6777 2.43679Z" fill="#ffffff"/>
</svg>
