<svg width="13" height="15" viewBox="0 0 13 15" fill="none" xmlns="http://www.w3.org/2000/svg">
<path fill-rule="evenodd" clip-rule="evenodd" d="M8.31923 2.70768C8.83048 2.15219 9.08698 1.55204 9.08698 0.909279V0.909272C9.08698 0.82402 9.08264 0.738086 9.07224 0.652161C8.7161 0.669074 8.33742 0.76786 7.93709 0.946487C7.53588 1.12782 7.20504 1.35513 6.94491 1.62851C6.42386 2.16846 6.13045 2.82883 6.13045 3.44588C6.13045 3.53116 6.13643 3.61232 6.14674 3.68943C6.956 3.74965 7.70226 3.36805 8.31923 2.70768ZM11.1035 12.6166C11.3765 12.2039 11.6121 11.755 11.8111 11.2674C11.8932 11.0606 11.9704 10.8452 12.0435 10.6204C11.7063 10.4705 11.4033 10.2594 11.1319 9.98626C10.5331 9.39782 10.2284 8.6567 10.2195 7.76611C10.2098 6.62273 10.6997 5.73145 11.6901 5.0951C11.1368 4.26111 10.3048 3.7982 9.19742 3.70343C8.78875 3.66664 8.28989 3.76003 7.69882 3.98559C7.07379 4.22881 6.70509 4.3508 6.5963 4.3508C6.45079 4.3508 6.11889 4.24647 5.602 4.04073C5.08364 3.83568 4.66652 3.73134 4.34844 3.73134C3.76712 3.74159 3.22731 3.90184 2.72773 4.21631C2.22814 4.53078 1.82897 4.95915 1.52893 5.50219C1.14715 6.17826 0.956543 6.98502 0.956543 7.92041C0.956543 8.737 1.09791 9.58047 1.37992 10.4515C1.64324 11.2579 1.97936 11.9653 2.3882 12.5752C2.76924 13.1465 3.08732 13.5497 3.34163 13.7849C3.74006 14.1777 4.13923 14.3647 4.5397 14.3466C4.80302 14.3371 5.14742 14.2415 5.57494 14.058C6.00181 13.8753 6.4009 13.7849 6.77301 13.7849C7.12782 13.7849 7.51585 13.8753 7.93809 14.058C8.35895 14.2415 8.7205 14.332 9.0203 14.332C9.43791 14.3216 9.8279 14.1398 10.1919 13.7849C10.4267 13.5686 10.7314 13.1792 11.1035 12.6166Z" fill="#ffffff"/>
</svg>
